<?xml version="1.0" encoding="UTF-8" standalone="no"?>
<svg
   version="1.1"
   preserveAspectRatio="none"
   x="0px"
   y="0px"
   width="451.5"
   height="451.49994"
   viewBox="0 0 451.5 451.49994"
   id="svg17"
   xml:space="preserve"
   xmlns:xlink="http://www.w3.org/1999/xlink"
   xmlns="http://www.w3.org/2000/svg"
   xmlns:svg="http://www.w3.org/2000/svg"><defs
     id="defs12"><radialGradient
       id="Gradient_1-79"
       gradientUnits="userSpaceOnUse"
       cx="0"
       cy="0"
       r="230.60001"
       fx="0"
       fy="0"
       gradientTransform="translate(-0.8,-2.25)"
       spreadMethod="pad"><stop
         offset="18.823529411764707%"
         stop-color="#24262D"
         id="stop1-0" /><stop
         offset="53.333333333333336%"
         stop-color="#383941"
         id="stop2-2" /><stop
         offset="83.52941176470588%"
         stop-color="#383941"
         id="stop3-3" /><stop
         offset="100%"
         stop-color="#1C1F26"
         id="stop4-9" /></radialGradient><radialGradient
       id="Gradient_2-9"
       gradientUnits="userSpaceOnUse"
       cx="0"
       cy="0"
       r="198.35001"
       fx="0"
       fy="0"
       gradientTransform="translate(-4.3,-4.55)"
       spreadMethod="pad"><stop
         offset="18.823529411764707%"
         stop-color="#24262D"
         id="stop5-7" /><stop
         offset="53.333333333333336%"
         stop-color="#383941"
         id="stop6-0" /><stop
         offset="83.52941176470588%"
         stop-color="#383941"
         id="stop7-39" /><stop
         offset="100%"
         stop-color="#1C1F26"
         id="stop8-8" /></radialGradient><radialGradient
       id="Gradient_3-6"
       gradientUnits="userSpaceOnUse"
       cx="0"
       cy="0"
       r="129.10001"
       fx="0"
       fy="0"
       gradientTransform="translate(-83.2,-23.8)"
       spreadMethod="pad"><stop
         offset="6.2745098039215685%"
         stop-color="#515563"
         id="stop9-5" /><stop
         offset="18.823529411764707%"
         stop-color="#282A32"
         id="stop10-7" /><stop
         offset="53.333333333333336%"
         stop-color="#34353D"
         id="stop11-6" /><stop
         offset="71.76470588235294%"
         stop-color="#373840"
         id="stop12-2" /><stop
         offset="100%"
         stop-color="#252933"
         id="stop13" /></radialGradient><radialGradient
       id="Gradient_4-7"
       gradientUnits="userSpaceOnUse"
       cx="0"
       cy="0"
       r="657.90002"
       fx="0"
       fy="0"
       gradientTransform="translate(-571.45,-57.7)"
       spreadMethod="pad"><stop
         offset="18.823529411764707%"
         stop-color="#24262D"
         id="stop14" /><stop
         offset="53.333333333333336%"
         stop-color="#383941"
         id="stop15" /><stop
         offset="83.52941176470588%"
         stop-color="#383941"
         id="stop16" /><stop
         offset="100%"
         stop-color="#1C1F26"
         id="stop17" /></radialGradient><g
       id="Paaddle_00_18_Layer0_0_FILL"><path
         fill="url(#Gradient_1)"
         stroke="none"
         d="m 159.6,-159.65 q -66.1,-66.1 -159.6,-66.1 -93.5,0 -159.65,66.1 -66.1,66.15 -66.1,159.65 0,93.5 66.1,159.6 66.15,66.15 159.65,66.15 93.5,0 159.6,-66.15 66.15,-66.1 66.15,-159.6 0,-93.5 -66.15,-159.65 M 3.1,-182.8 q 77,0 131.4,54.4 54.5,54.5 54.5,131.45 0,77 -54.5,131.45 -54.4,54.45 -131.4,54.45 -77,0 -131.45,-54.45 -54.45,-54.45 -54.45,-131.45 0,-76.95 54.45,-131.45 54.45,-54.4 131.45,-54.4 z"
         id="path17"
         style="fill:url(#Gradient_1-79)" /><path
         fill="url(#Gradient_2)"
         stroke="none"
         d="m 134.5,-128.4 q -54.4,-54.4 -131.4,-54.4 -77,0 -131.45,54.4 -54.45,54.5 -54.45,131.45 0,77 54.45,131.45 54.45,54.45 131.45,54.45 77,0 131.4,-54.45 Q 189,80.05 189,3.05 189,-73.9 134.5,-128.4 m -71.2,72.05 q 0.05,0 0.05,0.05 16.3,16.75 18.85,40.4 Q 84.65,6.4 80.55,23.3 76.45,40.2 61.6,54.35 46.75,68.45 34.65,72.05 22.5,75.65 8.05,77.3 -6.4,78.95 -26,77.5 q -7.02832,-0.515039 -13.45,-1.6 -0.259766,0 -0.55,0 -33.85,0 -57.75,-23.95 -23.9,-23.9 -23.9,-57.75 0,-33.8 23.9,-57.75 23.9,-23.9 57.75,-23.9 9.285352,0 17.8,1.8 9.95,0.61582 16,1.55 6.75,1.05 25.25,4.9 7.25,1.1 14.2,3.6 10.15,3.55 18.9,9.85 6,4.25 11.15,9.4 z"
         id="path18-0"
         style="fill:url(#Gradient_2-9)" /><path
         fill="url(#Gradient_3)"
         stroke="none"
         d="m 41.65,-5.8 q 0,-33.8 -23.9,-57.75 -17.34414062,-17.344141 -39.95,-22.1 -8.514648,-1.8 -17.8,-1.8 -33.85,0 -57.75,23.9 -23.9,23.95 -23.9,57.75 0,33.85 23.9,57.75 23.9,23.95 57.75,23.95 0.290234,0 0.55,0 33.5048828,-0.205469 57.2,-23.95 23.9,-23.9 23.9,-57.75 z"
         id="path19"
         style="fill:url(#Gradient_3-6)" /><path
         fill="url(#Gradient_4)"
         stroke="none"
         d="m 63.35,-56.3 q 0,-0.05 -0.05,-0.05 -5.15,-5.15 -11.15,-9.4 -8.75,-6.3 -18.9,-9.85 -6.95,-2.5 -14.2,-3.6 -18.5,-3.85 -25.25,-4.9 -6.05,-0.93418 -16,-1.55 22.60585938,4.755859 39.95,22.1 23.9,23.95 23.9,57.75 0,33.85 -23.9,57.75 -23.6951172,23.744531 -57.2,23.95 6.42168,1.084961 13.45,1.6 19.6,1.45 34.05,-0.2 14.45,-1.65 26.6,-5.25 12.1,-3.6 26.95,-17.7 Q 76.45,40.2 80.55,23.3 84.65,6.4 82.2,-15.9 79.65,-39.55 63.35,-56.3 Z"
         id="path20"
         style="fill:url(#Gradient_4-7)" /></g></defs><use
     xlink:href="#Paaddle_00_18_Layer0_0_FILL"
     id="use20"
     transform="matrix(-1,0,0,1,225.74994,225.74997)" /></svg>
